<svg width="845" height="928" viewBox="0 0 845 928" fill="none" xmlns="http://www.w3.org/2000/svg">
<path fill-rule="evenodd" clip-rule="evenodd" d="M836.427 96.8315C826.74 75.2979 808.969 61.3254 783.741 55.2277C738.233 44.2867 670.668 60.1407 592.859 97.5632C575.854 83.9392 574.286 56.6563 572.579 0C569.303 106.518 566.655 109.166 460.133 112.442C502.679 113.87 528.465 115.09 544.493 122.686C489.269 154.244 436.649 190.154 387.132 230.075C287.196 309.868 192.696 407.431 121.089 504.75C48.1927 603.777 5.36796 694.301 0.52447 759.634C-2.96005 803.851 10.978 835.489 40.5616 851.134C55.0573 858.835 72.9329 862.668 93.8052 862.668C124.33 862.668 161.231 854.514 203.254 838.277L212.662 834.479C225.834 849.218 227.332 876.292 228.9 928C232.176 821.482 234.824 818.834 341.346 815.558C307.128 814.513 283.677 813.503 267.439 809.112C325.212 779.321 387.969 738.031 452.119 687.158C578.084 587.574 688.021 469.662 761.684 355.2C833.326 244.291 860.505 150.038 836.427 96.8315ZM759.489 353.91C686.035 468.129 576.307 585.762 450.551 685.207C384.867 737.125 321.24 778.624 263.467 808.102C232.942 797.997 231.061 772.7 228.935 703.291C225.66 809.809 223.011 812.457 116.489 815.733C168.757 817.335 195.971 818.834 210.572 832.458C166.039 850.542 126.385 860.054 93.84 860.054C73.5949 860.054 56.1026 856.396 41.9206 848.834C13.452 833.712 0.106337 802.98 3.3121 759.982C8.15559 695.172 50.7713 605.17 123.354 506.527C194.822 409.417 289.148 312.063 388.91 232.375C438.769 192.199 491.763 156.079 547.386 124.358C568.955 136.728 570.662 163.593 572.579 225.057C575.854 118.504 578.468 115.717 684.989 112.581C637.635 111.117 610.839 109.759 595.368 99.3751C672.027 62.7192 738.233 47.1091 783.079 57.9456C807.47 63.7993 824.545 77.284 833.918 97.9813C845.87 124.428 845.173 160.7 831.793 205.789C818.726 249.797 794.404 299.623 759.489 353.91Z" fill="white" fill-opacity="0.48" style="mix-blend-mode:overlay"/>
<path fill-rule="evenodd" clip-rule="evenodd" d="M8.57313 96.8315C18.2601 75.2979 36.0312 61.3254 61.2591 55.2277C106.767 44.2867 174.332 60.1407 252.141 97.5632C269.146 83.9392 270.714 56.6563 272.421 0C275.697 106.518 278.345 109.166 384.867 112.442C342.321 113.87 316.535 115.09 300.507 122.686C355.731 154.244 408.351 190.154 457.868 230.075C557.804 309.868 652.304 407.431 723.911 504.75C796.807 603.777 839.632 694.301 844.476 759.634C847.96 803.851 834.022 835.489 804.438 851.134C789.943 858.835 772.067 862.668 751.195 862.668C720.67 862.668 683.769 854.514 641.746 838.277L632.338 834.479C619.166 849.218 617.668 876.292 616.1 928C612.824 821.482 610.176 818.834 503.654 815.558C537.872 814.513 561.323 813.503 577.561 809.112C519.788 779.321 457.031 738.031 392.881 687.158C266.916 587.574 156.979 469.662 83.3162 355.2C11.6744 244.291 -15.5049 150.038 8.57313 96.8315ZM85.5114 353.91C158.965 468.129 268.693 585.762 394.449 685.207C460.133 737.125 523.76 778.624 581.533 808.102C612.058 797.997 613.939 772.7 616.065 703.291C619.34 809.809 621.989 812.457 728.511 815.733C676.243 817.335 649.029 818.834 634.428 832.458C678.961 850.542 718.615 860.054 751.16 860.054C771.405 860.054 788.897 856.396 803.079 848.834C831.548 833.712 844.894 802.98 841.688 759.982C836.844 695.172 794.229 605.17 721.646 506.527C650.178 409.417 555.852 312.063 456.09 232.375C406.231 192.199 353.237 156.079 297.614 124.358C276.045 136.728 274.338 163.593 272.421 225.057C269.146 118.504 266.532 115.717 160.011 112.581C207.365 111.117 234.161 109.759 249.632 99.3751C172.973 62.7192 106.767 47.1091 61.9212 57.9456C37.5295 63.7993 20.4554 77.284 11.082 97.9813C-0.869926 124.428 -0.173072 160.7 13.2075 205.789C26.2745 249.797 50.5964 299.623 85.5114 353.91Z" fill="white" fill-opacity="0.48" style="mix-blend-mode:overlay"/>
</svg>
