<svg width="387" height="195" viewBox="0 0 387 195" fill="none" xmlns="http://www.w3.org/2000/svg">
<path d="M347.923 194.225C347.923 183.922 343.83 174.042 336.546 166.757C329.261 159.472 319.38 155.38 309.078 155.38C319.38 155.38 329.261 151.287 336.546 144.002C343.83 136.717 347.923 126.837 347.923 116.535C347.923 126.837 352.016 136.717 359.3 144.002C366.585 151.287 376.466 155.38 386.768 155.38C376.466 155.38 366.585 159.472 359.3 166.757C352.016 174.042 347.923 183.922 347.923 194.225Z" fill="url(#paint0_linear_41_27)"/>
<path d="M192.543 155.38C192.543 134.775 184.358 115.014 169.789 100.445C155.219 85.8749 135.458 77.6898 114.854 77.6898C135.458 77.6898 155.219 69.5046 169.789 54.935C184.358 40.3653 192.543 20.6046 192.543 0C192.543 20.6046 200.728 40.3653 215.298 54.935C229.868 69.5046 249.628 77.6898 270.233 77.6898C249.628 77.6898 229.868 85.8749 215.298 100.445C200.728 115.014 192.543 134.775 192.543 155.38Z" fill="url(#paint1_linear_41_27)"/>
<path d="M38.9816 194.225C38.9816 183.922 34.889 174.042 27.6042 166.757C20.3194 159.472 10.439 155.38 0.136719 155.38C10.439 155.38 20.3194 151.287 27.6042 144.002C34.889 136.717 38.9816 126.837 38.9816 116.535C38.9816 126.837 43.0742 136.717 50.359 144.002C57.6438 151.287 67.5241 155.38 77.8264 155.38C67.5241 155.38 57.6438 159.472 50.359 166.757C43.0742 174.042 38.9816 183.922 38.9816 194.225Z" fill="url(#paint2_linear_41_27)"/>
<defs>
<linearGradient id="paint0_linear_41_27" x1="309.151" y1="116.535" x2="386.84" y2="194.225" gradientUnits="userSpaceOnUse">
<stop offset="0.285339" stop-color="#FEAC5E"/>
<stop offset="0.527327" stop-color="#C779D0"/>
<stop offset="0.812053" stop-color="#4BC0C8"/>
</linearGradient>
<linearGradient id="paint1_linear_41_27" x1="114.999" y1="-8.65537e-06" x2="270.378" y2="155.379" gradientUnits="userSpaceOnUse">
<stop offset="0.285339" stop-color="#FEAC5E"/>
<stop offset="0.527327" stop-color="#C779D0"/>
<stop offset="0.812053" stop-color="#4BC0C8"/>
</linearGradient>
<linearGradient id="paint2_linear_41_27" x1="0.20924" y1="116.535" x2="77.899" y2="194.225" gradientUnits="userSpaceOnUse">
<stop offset="0.285339" stop-color="#FEAC5E"/>
<stop offset="0.527327" stop-color="#C779D0"/>
<stop offset="0.812053" stop-color="#4BC0C8"/>
</linearGradient>
</defs>
</svg>
