<svg width="1063" height="133" viewBox="0 0 1063 133" fill="none" xmlns="http://www.w3.org/2000/svg">
<path d="M135.869 129.867H134.429C126.525 129.868 118.828 127.342 112.462 122.657C106.097 117.971 101.397 111.372 99.0492 103.825L91.6532 82.0097L75.8666 28.8077L63.7574 67.9427H37.8608L55.7139 17.8846C57.213 13.6868 59.9753 10.0563 63.6213 7.49204C67.2673 4.92778 71.6179 3.55559 76.0753 3.56411C80.5327 3.57262 84.8781 4.96141 88.5143 7.53958C92.1504 10.1178 94.8989 13.7588 96.3819 17.9623L135.869 129.867Z" fill="#E6E6E6"/>
<path d="M25.2647 103.162H52.5804L52.3681 103.825L52.078 104.68C49.5962 112.021 44.875 118.4 38.5785 122.918C32.2821 127.436 24.7275 129.866 16.9778 129.867H15.7296L25.2647 103.162Z" fill="#E6E6E6"/>
<path d="M24.8607 73.122H75.7993C75.8003 79.035 73.7277 84.7612 69.9423 89.3037C66.1568 93.8462 60.8983 96.9174 55.082 97.9827H0C0 91.3892 2.61925 85.0658 7.28153 80.4035C11.9438 75.7412 18.2672 73.122 24.8607 73.122Z" fill="#E6E6E6"/>
<path d="M267.159 3.54303C267.159 10.2436 264.498 16.6698 259.76 21.4079C255.022 26.1459 248.595 28.8077 241.895 28.8077H191.36V54.0724H241.895C241.895 60.7731 239.233 67.1992 234.495 71.9373C229.757 76.6753 223.331 79.3372 216.63 79.3372H191.36V104.602C191.361 107.92 190.708 111.206 189.438 114.271C188.169 117.337 186.308 120.122 183.962 122.468C181.616 124.814 178.83 126.675 175.765 127.945C172.699 129.214 169.413 129.867 166.095 129.867V28.8077C166.095 22.1071 168.757 15.6809 173.495 10.9429C178.233 6.20484 184.66 3.54303 191.36 3.54303H267.159Z" fill="#E6E6E6"/>
<path d="M475.71 79.3372C480.971 79.3372 486.18 78.3009 491.041 76.2876C495.901 74.2743 500.318 71.3234 504.038 67.6032C507.758 63.8831 510.709 59.4667 512.722 54.6062C514.736 49.7457 515.772 44.5361 515.772 39.2751C515.772 29.797 512.007 20.7071 505.305 14.0051C498.603 7.30301 489.513 3.53783 480.035 3.53783H418.748C418.748 10.2385 421.41 16.6646 426.148 21.4027C430.886 26.1407 437.312 28.8026 444.012 28.8026H477.585C484.53 28.8026 490.388 34.2875 490.502 41.2329C490.53 42.9094 490.224 44.5746 489.602 46.1316C488.98 47.6885 488.054 49.1059 486.878 50.3011C485.702 51.4963 484.3 52.4454 482.753 53.0929C481.206 53.7404 479.546 54.0734 477.87 54.0724H444.012C437.312 54.0724 430.886 56.7343 426.148 61.4723C421.41 66.2104 418.748 72.6366 418.748 79.3372C432.346 79.3382 445.388 84.741 455.003 94.3572L465.263 104.617C481.431 120.784 503.359 129.867 526.224 129.867L475.71 79.3372Z" fill="#E6E6E6"/>
<path d="M330.321 0.409546C312.739 0.409546 295.876 7.39419 283.443 19.827C271.011 32.2597 264.026 49.1222 264.026 66.7048C264.026 84.2874 271.011 101.15 283.443 113.583C295.876 126.015 312.739 133 330.321 133C347.904 133 364.766 126.015 377.199 113.583C389.632 101.15 396.616 84.2874 396.616 66.7048C396.616 49.1222 389.632 32.2597 377.199 19.827C364.766 7.39419 347.904 0.409546 330.321 0.409546ZM370.083 66.7048C370.083 77.2544 365.892 87.3718 358.432 94.8315C350.973 102.291 340.855 106.482 330.306 106.482C325.082 106.483 319.909 105.454 315.082 103.456C310.255 101.457 305.87 98.5271 302.176 94.8333C298.481 91.1396 295.551 86.7544 293.552 81.9281C291.552 77.1017 290.523 71.9288 290.523 66.7048C290.523 61.4807 291.552 56.3079 293.552 51.4816C295.551 46.6552 298.481 42.27 302.176 38.5763C305.87 34.8826 310.255 31.9527 315.082 29.954C319.909 27.9553 325.082 26.927 330.306 26.9276C340.855 26.9276 350.973 31.1185 358.432 38.5781C365.892 46.0378 370.083 56.1552 370.083 66.7048Z" fill="#E6E6E6"/>
<path d="M862.133 0.409546C844.551 0.409546 827.688 7.39419 815.256 19.827C802.823 32.2597 795.838 49.1222 795.838 66.7048C795.838 84.2874 802.823 101.15 815.256 113.583C827.688 126.015 844.551 133 862.133 133C879.716 133 896.578 126.015 909.011 113.583C921.444 101.15 928.429 84.2874 928.429 66.7048C928.429 49.1222 921.444 32.2597 909.011 19.827C896.578 7.39419 879.716 0.409546 862.133 0.409546ZM901.895 66.7048C901.895 71.9288 900.866 77.1017 898.867 81.9281C896.867 86.7544 893.937 91.1396 890.243 94.8333C886.549 98.5271 882.163 101.457 877.336 103.456C872.51 105.454 867.337 106.483 862.113 106.482C851.563 106.482 841.446 102.291 833.986 94.8315C826.526 87.3718 822.335 77.2544 822.335 66.7048C822.335 56.1552 826.526 46.0378 833.986 38.5781C841.446 31.1185 851.563 26.9276 862.113 26.9276C867.337 26.927 872.51 27.9553 877.336 29.954C882.163 31.9527 886.549 34.8826 890.243 38.5763C893.937 42.27 896.867 46.6552 898.867 51.4816C900.866 56.3079 901.895 61.4807 901.895 66.7048Z" fill="#E6E6E6"/>
<path d="M570.336 41.4401C570.336 44.7904 571.667 48.0035 574.036 50.3725C576.405 52.7415 579.618 54.0724 582.968 54.0724H608.233C618.28 54.0724 627.916 58.0623 635.023 65.1649C642.129 72.2675 646.125 81.9014 646.13 91.9488C646.13 102 642.137 111.639 635.03 118.746C627.923 125.853 618.284 129.846 608.233 129.846H545.045C545.045 123.145 547.707 116.719 552.445 111.981C557.183 107.243 563.609 104.581 570.31 104.581H608.207C609.868 104.585 611.514 104.26 613.049 103.627C614.585 102.994 615.98 102.064 617.156 100.89C618.332 99.717 619.265 98.3233 619.901 96.789C620.538 95.2546 620.865 93.6099 620.865 91.9488C620.865 90.2899 620.539 88.6472 619.904 87.1146C619.269 85.5819 618.338 84.1894 617.165 83.0164C615.992 81.8434 614.6 80.9129 613.067 80.278C611.535 79.6432 609.892 79.3164 608.233 79.3164H582.968C577.992 79.3164 573.064 78.3362 568.466 76.4317C563.868 74.5272 559.69 71.7357 556.171 68.2167C552.652 64.6976 549.86 60.5198 547.956 55.9219C546.051 51.324 545.071 46.3961 545.071 41.4194C545.071 36.4427 546.051 31.5147 547.956 26.9168C549.86 22.3189 552.652 18.1412 556.171 14.6221C559.69 11.103 563.868 8.31155 568.466 6.40705C573.064 4.50254 577.992 3.52231 582.968 3.52231H646.156C646.156 6.84012 645.502 10.1254 644.233 13.1907C642.963 16.2559 641.102 19.0411 638.756 21.3872C636.41 23.7332 633.625 25.5942 630.56 26.8639C627.494 28.1335 624.209 28.787 620.891 28.787H582.994C581.331 28.7836 579.684 29.1085 578.147 29.7431C576.61 30.3777 575.214 31.3095 574.038 32.4851C572.862 33.6606 571.929 35.0568 571.294 36.5936C570.659 38.1303 570.333 39.7773 570.336 41.4401Z" fill="#E6E6E6"/>
<path d="M772.459 3.54303V129.867C765.758 129.867 759.332 127.205 754.594 122.467C749.856 117.729 747.194 111.302 747.194 104.602V79.3372H696.67V104.602C696.67 111.302 694.008 117.729 689.27 122.467C684.532 127.205 678.106 129.867 671.405 129.867V3.54303C678.106 3.5444 684.532 6.20736 689.27 10.9462C694.008 15.6851 696.67 22.1118 696.67 28.8129V54.0724H747.199V28.8077C747.199 22.1071 749.861 15.6809 754.599 10.9429C759.337 6.20484 765.763 3.54303 772.464 3.54303H772.459Z" fill="#E6E6E6"/>
<path d="M1062.9 3.54303C1055.78 3.54333 1048.87 6.0116 1043.36 10.528C1037.85 15.0444 1034.08 21.33 1032.68 28.3157L1021.84 82.4965L1016.36 66.0522C1015.2 62.5631 1012.97 59.5286 1009.98 57.3785C1007 55.2283 1003.42 54.0717 999.737 54.0724H999.349C991.808 54.0724 985.494 58.8944 983.112 66.0522L977.632 82.4913L966.797 28.3105C965.399 21.3248 961.624 15.0392 956.114 10.5228C950.604 6.0064 943.7 3.53814 936.576 3.53783L961.851 129.867C969.208 129.867 976.378 127.551 982.346 123.249C988.314 118.947 992.777 112.876 995.102 105.897L999.763 91.9695L1004.42 105.897C1006.75 112.876 1011.22 118.947 1017.18 123.249C1023.15 127.551 1030.32 129.866 1037.68 129.867L1062.95 3.54303H1062.9Z" fill="#E6E6E6"/>
</svg>
